<mxfile host="app.diagrams.net" modified="2023-07-04T11:24:17.309Z" agent="Mozilla/5.0 (Macintosh; Intel Mac OS X 10_15_7) AppleWebKit/537.36 (KHTML, like Gecko) Chrome/114.0.0.0 Safari/537.36" etag="LEN4nK7RkpqhqHx156iR" version="21.5.2" type="device">
  <diagram name="Page-1" id="d-GbvBrNdY56G-XM4Tbh">
    <mxGraphModel dx="3958" dy="2665" grid="1" gridSize="10" guides="1" tooltips="1" connect="1" arrows="1" fold="1" page="0" pageScale="1" pageWidth="850" pageHeight="1100" math="0" shadow="0">
      <root>
        <mxCell id="0" />
        <mxCell id="1" parent="0" />
        <mxCell id="EugW5KYL0ZaTyMGA_2LX-1" value="Doctor" style="whiteSpace=wrap;html=1;align=center;" vertex="1" parent="1">
          <mxGeometry x="-2500" y="-1610" width="100" height="40" as="geometry" />
        </mxCell>
        <mxCell id="EugW5KYL0ZaTyMGA_2LX-2" value="Doctor&amp;nbsp;&lt;br&gt;ID" style="ellipse;whiteSpace=wrap;html=1;align=center;fontStyle=4;" vertex="1" parent="1">
          <mxGeometry x="-2710" y="-1630" width="100" height="40" as="geometry" />
        </mxCell>
        <mxCell id="EugW5KYL0ZaTyMGA_2LX-3" value="Age" style="ellipse;whiteSpace=wrap;html=1;align=center;dashed=1;" vertex="1" parent="1">
          <mxGeometry x="-2580" y="-1740" width="100" height="40" as="geometry" />
        </mxCell>
        <mxCell id="EugW5KYL0ZaTyMGA_2LX-4" value="Name" style="ellipse;whiteSpace=wrap;html=1;align=center;" vertex="1" parent="1">
          <mxGeometry x="-2680" y="-1700" width="100" height="40" as="geometry" />
        </mxCell>
        <mxCell id="EugW5KYL0ZaTyMGA_2LX-5" value="Address" style="ellipse;whiteSpace=wrap;html=1;align=center;" vertex="1" parent="1">
          <mxGeometry x="-2690" y="-1560" width="100" height="40" as="geometry" />
        </mxCell>
        <mxCell id="EugW5KYL0ZaTyMGA_2LX-6" value="Telephone&lt;br&gt;No" style="ellipse;shape=doubleEllipse;margin=3;whiteSpace=wrap;html=1;align=center;" vertex="1" parent="1">
          <mxGeometry x="-2470" y="-1750" width="100" height="40" as="geometry" />
        </mxCell>
        <mxCell id="EugW5KYL0ZaTyMGA_2LX-7" value="Specialized" style="ellipse;whiteSpace=wrap;html=1;align=center;" vertex="1" parent="1">
          <mxGeometry x="-2620" y="-1510" width="100" height="40" as="geometry" />
        </mxCell>
        <mxCell id="EugW5KYL0ZaTyMGA_2LX-8" value="" style="endArrow=none;html=1;rounded=0;exitX=1;exitY=0;exitDx=0;exitDy=0;entryX=0;entryY=1;entryDx=0;entryDy=0;" edge="1" parent="1" source="EugW5KYL0ZaTyMGA_2LX-7" target="EugW5KYL0ZaTyMGA_2LX-1">
          <mxGeometry relative="1" as="geometry">
            <mxPoint x="-2480" y="-1500" as="sourcePoint" />
            <mxPoint x="-2320" y="-1500" as="targetPoint" />
          </mxGeometry>
        </mxCell>
        <mxCell id="EugW5KYL0ZaTyMGA_2LX-9" value="" style="endArrow=none;html=1;rounded=0;exitX=1;exitY=0.5;exitDx=0;exitDy=0;entryX=0;entryY=0.75;entryDx=0;entryDy=0;" edge="1" parent="1" source="EugW5KYL0ZaTyMGA_2LX-5" target="EugW5KYL0ZaTyMGA_2LX-1">
          <mxGeometry relative="1" as="geometry">
            <mxPoint x="-2480" y="-1500" as="sourcePoint" />
            <mxPoint x="-2320" y="-1500" as="targetPoint" />
          </mxGeometry>
        </mxCell>
        <mxCell id="EugW5KYL0ZaTyMGA_2LX-10" value="" style="endArrow=none;html=1;rounded=0;exitX=1;exitY=0.5;exitDx=0;exitDy=0;entryX=0;entryY=0.25;entryDx=0;entryDy=0;" edge="1" parent="1" source="EugW5KYL0ZaTyMGA_2LX-2" target="EugW5KYL0ZaTyMGA_2LX-1">
          <mxGeometry relative="1" as="geometry">
            <mxPoint x="-2480" y="-1500" as="sourcePoint" />
            <mxPoint x="-2320" y="-1500" as="targetPoint" />
          </mxGeometry>
        </mxCell>
        <mxCell id="EugW5KYL0ZaTyMGA_2LX-11" value="" style="endArrow=none;html=1;rounded=0;exitX=0.942;exitY=0.842;exitDx=0;exitDy=0;exitPerimeter=0;entryX=0;entryY=0;entryDx=0;entryDy=0;" edge="1" parent="1" source="EugW5KYL0ZaTyMGA_2LX-4" target="EugW5KYL0ZaTyMGA_2LX-1">
          <mxGeometry relative="1" as="geometry">
            <mxPoint x="-2480" y="-1500" as="sourcePoint" />
            <mxPoint x="-2320" y="-1500" as="targetPoint" />
          </mxGeometry>
        </mxCell>
        <mxCell id="EugW5KYL0ZaTyMGA_2LX-12" value="" style="endArrow=none;html=1;rounded=0;exitX=0.62;exitY=1.064;exitDx=0;exitDy=0;exitPerimeter=0;entryX=0.25;entryY=0;entryDx=0;entryDy=0;" edge="1" parent="1" source="EugW5KYL0ZaTyMGA_2LX-3" target="EugW5KYL0ZaTyMGA_2LX-1">
          <mxGeometry relative="1" as="geometry">
            <mxPoint x="-2480" y="-1500" as="sourcePoint" />
            <mxPoint x="-2320" y="-1500" as="targetPoint" />
          </mxGeometry>
        </mxCell>
        <mxCell id="EugW5KYL0ZaTyMGA_2LX-13" value="" style="endArrow=none;html=1;rounded=0;exitX=0.309;exitY=0.981;exitDx=0;exitDy=0;exitPerimeter=0;entryX=0.5;entryY=0;entryDx=0;entryDy=0;" edge="1" parent="1" source="EugW5KYL0ZaTyMGA_2LX-6" target="EugW5KYL0ZaTyMGA_2LX-1">
          <mxGeometry relative="1" as="geometry">
            <mxPoint x="-2480" y="-1500" as="sourcePoint" />
            <mxPoint x="-2320" y="-1500" as="targetPoint" />
          </mxGeometry>
        </mxCell>
        <mxCell id="EugW5KYL0ZaTyMGA_2LX-14" value="Treats" style="shape=rhombus;perimeter=rhombusPerimeter;whiteSpace=wrap;html=1;align=center;" vertex="1" parent="1">
          <mxGeometry x="-2240" y="-1620" width="120" height="60" as="geometry" />
        </mxCell>
        <mxCell id="EugW5KYL0ZaTyMGA_2LX-15" value="" style="endArrow=none;html=1;rounded=0;exitX=1;exitY=0.5;exitDx=0;exitDy=0;" edge="1" parent="1" source="EugW5KYL0ZaTyMGA_2LX-1" target="EugW5KYL0ZaTyMGA_2LX-14">
          <mxGeometry relative="1" as="geometry">
            <mxPoint x="-2300" y="-1500" as="sourcePoint" />
            <mxPoint x="-2140" y="-1500" as="targetPoint" />
          </mxGeometry>
        </mxCell>
        <mxCell id="EugW5KYL0ZaTyMGA_2LX-16" value="Patient" style="whiteSpace=wrap;html=1;align=center;" vertex="1" parent="1">
          <mxGeometry x="-1890" y="-1610" width="100" height="40" as="geometry" />
        </mxCell>
        <mxCell id="EugW5KYL0ZaTyMGA_2LX-17" value="" style="endArrow=none;html=1;rounded=0;exitX=1;exitY=0.5;exitDx=0;exitDy=0;entryX=0;entryY=0.5;entryDx=0;entryDy=0;" edge="1" parent="1" source="EugW5KYL0ZaTyMGA_2LX-70" target="EugW5KYL0ZaTyMGA_2LX-16">
          <mxGeometry relative="1" as="geometry">
            <mxPoint x="-2170" y="-1500" as="sourcePoint" />
            <mxPoint x="-2010" y="-1500" as="targetPoint" />
          </mxGeometry>
        </mxCell>
        <mxCell id="EugW5KYL0ZaTyMGA_2LX-18" value="Patient&lt;br&gt;ID" style="ellipse;whiteSpace=wrap;html=1;align=center;fontStyle=4;" vertex="1" parent="1">
          <mxGeometry x="-2040" y="-1690" width="100" height="40" as="geometry" />
        </mxCell>
        <mxCell id="EugW5KYL0ZaTyMGA_2LX-19" value="Address" style="ellipse;whiteSpace=wrap;html=1;align=center;" vertex="1" parent="1">
          <mxGeometry x="-1950" y="-1730" width="100" height="40" as="geometry" />
        </mxCell>
        <mxCell id="EugW5KYL0ZaTyMGA_2LX-20" value="Name" style="ellipse;whiteSpace=wrap;html=1;align=center;" vertex="1" parent="1">
          <mxGeometry x="-1840" y="-1720" width="100" height="40" as="geometry" />
        </mxCell>
        <mxCell id="EugW5KYL0ZaTyMGA_2LX-21" value="Telephone&lt;br&gt;No" style="ellipse;shape=doubleEllipse;margin=3;whiteSpace=wrap;html=1;align=center;" vertex="1" parent="1">
          <mxGeometry x="-1740" y="-1690" width="100" height="40" as="geometry" />
        </mxCell>
        <mxCell id="EugW5KYL0ZaTyMGA_2LX-22" value="Date of&amp;nbsp;&lt;br&gt;Birth" style="ellipse;whiteSpace=wrap;html=1;align=center;" vertex="1" parent="1">
          <mxGeometry x="-1700" y="-1630" width="100" height="40" as="geometry" />
        </mxCell>
        <mxCell id="EugW5KYL0ZaTyMGA_2LX-23" value="" style="endArrow=none;html=1;rounded=0;exitX=0.082;exitY=0.775;exitDx=0;exitDy=0;exitPerimeter=0;entryX=1;entryY=0;entryDx=0;entryDy=0;" edge="1" parent="1" source="EugW5KYL0ZaTyMGA_2LX-21" target="EugW5KYL0ZaTyMGA_2LX-16">
          <mxGeometry relative="1" as="geometry">
            <mxPoint x="-2080" y="-1500" as="sourcePoint" />
            <mxPoint x="-1920" y="-1500" as="targetPoint" />
          </mxGeometry>
        </mxCell>
        <mxCell id="EugW5KYL0ZaTyMGA_2LX-24" value="" style="endArrow=none;html=1;rounded=0;exitX=0.318;exitY=1.002;exitDx=0;exitDy=0;exitPerimeter=0;entryX=0.5;entryY=0;entryDx=0;entryDy=0;" edge="1" parent="1" source="EugW5KYL0ZaTyMGA_2LX-20" target="EugW5KYL0ZaTyMGA_2LX-16">
          <mxGeometry relative="1" as="geometry">
            <mxPoint x="-2080" y="-1500" as="sourcePoint" />
            <mxPoint x="-1920" y="-1500" as="targetPoint" />
          </mxGeometry>
        </mxCell>
        <mxCell id="EugW5KYL0ZaTyMGA_2LX-25" value="" style="endArrow=none;html=1;rounded=0;exitX=0.591;exitY=0.957;exitDx=0;exitDy=0;exitPerimeter=0;entryX=0.25;entryY=0;entryDx=0;entryDy=0;" edge="1" parent="1" source="EugW5KYL0ZaTyMGA_2LX-19" target="EugW5KYL0ZaTyMGA_2LX-16">
          <mxGeometry relative="1" as="geometry">
            <mxPoint x="-2080" y="-1500" as="sourcePoint" />
            <mxPoint x="-1920" y="-1500" as="targetPoint" />
          </mxGeometry>
        </mxCell>
        <mxCell id="EugW5KYL0ZaTyMGA_2LX-26" value="" style="endArrow=none;html=1;rounded=0;exitX=1;exitY=1;exitDx=0;exitDy=0;entryX=0;entryY=0;entryDx=0;entryDy=0;" edge="1" parent="1" source="EugW5KYL0ZaTyMGA_2LX-18" target="EugW5KYL0ZaTyMGA_2LX-16">
          <mxGeometry relative="1" as="geometry">
            <mxPoint x="-2080" y="-1500" as="sourcePoint" />
            <mxPoint x="-1920" y="-1500" as="targetPoint" />
          </mxGeometry>
        </mxCell>
        <mxCell id="EugW5KYL0ZaTyMGA_2LX-27" value="Make" style="shape=rhombus;perimeter=rhombusPerimeter;whiteSpace=wrap;html=1;align=center;" vertex="1" parent="1">
          <mxGeometry x="-1900" y="-1390" width="120" height="60" as="geometry" />
        </mxCell>
        <mxCell id="EugW5KYL0ZaTyMGA_2LX-28" value="" style="endArrow=none;html=1;rounded=0;entryX=0.5;entryY=1;entryDx=0;entryDy=0;exitX=0.5;exitY=0;exitDx=0;exitDy=0;" edge="1" parent="1" source="EugW5KYL0ZaTyMGA_2LX-27" target="EugW5KYL0ZaTyMGA_2LX-16">
          <mxGeometry relative="1" as="geometry">
            <mxPoint x="-2080" y="-1480" as="sourcePoint" />
            <mxPoint x="-1920" y="-1480" as="targetPoint" />
          </mxGeometry>
        </mxCell>
        <mxCell id="EugW5KYL0ZaTyMGA_2LX-29" value="Appointment" style="whiteSpace=wrap;html=1;align=center;" vertex="1" parent="1">
          <mxGeometry x="-1890" y="-1160" width="100" height="40" as="geometry" />
        </mxCell>
        <mxCell id="EugW5KYL0ZaTyMGA_2LX-30" value="" style="endArrow=none;html=1;rounded=0;entryX=0.5;entryY=1;entryDx=0;entryDy=0;" edge="1" parent="1" source="EugW5KYL0ZaTyMGA_2LX-29" target="EugW5KYL0ZaTyMGA_2LX-27">
          <mxGeometry relative="1" as="geometry">
            <mxPoint x="-2080" y="-1250" as="sourcePoint" />
            <mxPoint x="-1920" y="-1250" as="targetPoint" />
          </mxGeometry>
        </mxCell>
        <mxCell id="EugW5KYL0ZaTyMGA_2LX-31" value="Appointment&lt;br&gt;Number" style="ellipse;whiteSpace=wrap;html=1;align=center;fontStyle=4;" vertex="1" parent="1">
          <mxGeometry x="-1700" y="-1180" width="100" height="40" as="geometry" />
        </mxCell>
        <mxCell id="EugW5KYL0ZaTyMGA_2LX-36" value="Doctor" style="ellipse;whiteSpace=wrap;html=1;align=center;" vertex="1" parent="1">
          <mxGeometry x="-1680" y="-1120" width="100" height="40" as="geometry" />
        </mxCell>
        <mxCell id="EugW5KYL0ZaTyMGA_2LX-37" value="Location" style="ellipse;whiteSpace=wrap;html=1;align=center;" vertex="1" parent="1">
          <mxGeometry x="-1700" y="-1070" width="100" height="40" as="geometry" />
        </mxCell>
        <mxCell id="EugW5KYL0ZaTyMGA_2LX-38" value="Time &amp;amp; Date" style="ellipse;whiteSpace=wrap;html=1;align=center;" vertex="1" parent="1">
          <mxGeometry x="-1770" y="-1220" width="100" height="40" as="geometry" />
        </mxCell>
        <mxCell id="EugW5KYL0ZaTyMGA_2LX-39" value="Contact&lt;br&gt;number" style="ellipse;shape=doubleEllipse;margin=3;whiteSpace=wrap;html=1;align=center;" vertex="1" parent="1">
          <mxGeometry x="-1760" y="-1030" width="100" height="40" as="geometry" />
        </mxCell>
        <mxCell id="EugW5KYL0ZaTyMGA_2LX-41" value="" style="endArrow=none;html=1;rounded=0;entryX=0.4;entryY=0;entryDx=0;entryDy=0;exitX=0.862;exitY=1.019;exitDx=0;exitDy=0;exitPerimeter=0;entryPerimeter=0;" edge="1" parent="1" source="EugW5KYL0ZaTyMGA_2LX-29" target="EugW5KYL0ZaTyMGA_2LX-39">
          <mxGeometry relative="1" as="geometry">
            <mxPoint x="-1940" y="-1040" as="sourcePoint" />
            <mxPoint x="-1780" y="-1040" as="targetPoint" />
          </mxGeometry>
        </mxCell>
        <mxCell id="EugW5KYL0ZaTyMGA_2LX-42" value="" style="endArrow=none;html=1;rounded=0;entryX=0;entryY=0;entryDx=0;entryDy=0;exitX=1;exitY=1;exitDx=0;exitDy=0;" edge="1" parent="1" source="EugW5KYL0ZaTyMGA_2LX-29" target="EugW5KYL0ZaTyMGA_2LX-37">
          <mxGeometry relative="1" as="geometry">
            <mxPoint x="-1940" y="-1040" as="sourcePoint" />
            <mxPoint x="-1780" y="-1040" as="targetPoint" />
          </mxGeometry>
        </mxCell>
        <mxCell id="EugW5KYL0ZaTyMGA_2LX-43" value="" style="endArrow=none;html=1;rounded=0;entryX=0;entryY=0.5;entryDx=0;entryDy=0;exitX=1;exitY=0.625;exitDx=0;exitDy=0;exitPerimeter=0;" edge="1" parent="1" source="EugW5KYL0ZaTyMGA_2LX-29" target="EugW5KYL0ZaTyMGA_2LX-36">
          <mxGeometry relative="1" as="geometry">
            <mxPoint x="-1940" y="-1040" as="sourcePoint" />
            <mxPoint x="-1780" y="-1040" as="targetPoint" />
          </mxGeometry>
        </mxCell>
        <mxCell id="EugW5KYL0ZaTyMGA_2LX-46" value="" style="endArrow=none;html=1;rounded=0;exitX=0;exitY=0.5;exitDx=0;exitDy=0;entryX=1;entryY=0.25;entryDx=0;entryDy=0;" edge="1" parent="1" source="EugW5KYL0ZaTyMGA_2LX-31" target="EugW5KYL0ZaTyMGA_2LX-29">
          <mxGeometry relative="1" as="geometry">
            <mxPoint x="-1940" y="-1040" as="sourcePoint" />
            <mxPoint x="-1780" y="-1040" as="targetPoint" />
          </mxGeometry>
        </mxCell>
        <mxCell id="EugW5KYL0ZaTyMGA_2LX-47" value="" style="endArrow=none;html=1;rounded=0;exitX=0.023;exitY=0.758;exitDx=0;exitDy=0;exitPerimeter=0;entryX=1;entryY=0;entryDx=0;entryDy=0;" edge="1" parent="1" source="EugW5KYL0ZaTyMGA_2LX-38" target="EugW5KYL0ZaTyMGA_2LX-29">
          <mxGeometry relative="1" as="geometry">
            <mxPoint x="-1940" y="-1040" as="sourcePoint" />
            <mxPoint x="-1780" y="-1040" as="targetPoint" />
          </mxGeometry>
        </mxCell>
        <mxCell id="EugW5KYL0ZaTyMGA_2LX-48" value="Date of&amp;nbsp;&lt;br&gt;Birth" style="ellipse;whiteSpace=wrap;html=1;align=center;" vertex="1" parent="1">
          <mxGeometry x="-2370" y="-1730" width="100" height="40" as="geometry" />
        </mxCell>
        <mxCell id="EugW5KYL0ZaTyMGA_2LX-49" value="" style="endArrow=none;html=1;rounded=0;entryX=0;entryY=1;entryDx=0;entryDy=0;exitX=0.75;exitY=0;exitDx=0;exitDy=0;" edge="1" parent="1" source="EugW5KYL0ZaTyMGA_2LX-1" target="EugW5KYL0ZaTyMGA_2LX-48">
          <mxGeometry relative="1" as="geometry">
            <mxPoint x="-2570" y="-1550" as="sourcePoint" />
            <mxPoint x="-2410" y="-1550" as="targetPoint" />
          </mxGeometry>
        </mxCell>
        <mxCell id="EugW5KYL0ZaTyMGA_2LX-51" value="" style="endArrow=none;html=1;rounded=0;exitX=1;exitY=0.5;exitDx=0;exitDy=0;entryX=0.097;entryY=1.025;entryDx=0;entryDy=0;entryPerimeter=0;" edge="1" parent="1" source="EugW5KYL0ZaTyMGA_2LX-52" target="EugW5KYL0ZaTyMGA_2LX-29">
          <mxGeometry relative="1" as="geometry">
            <mxPoint x="-2180" y="-1010" as="sourcePoint" />
            <mxPoint x="-1880" y="-1090" as="targetPoint" />
            <Array as="points">
              <mxPoint x="-2040" y="-980" />
              <mxPoint x="-1880" y="-980" />
            </Array>
          </mxGeometry>
        </mxCell>
        <mxCell id="EugW5KYL0ZaTyMGA_2LX-52" value="Recorded" style="shape=rhombus;perimeter=rhombusPerimeter;whiteSpace=wrap;html=1;align=center;" vertex="1" parent="1">
          <mxGeometry x="-2300" y="-1010" width="120" height="60" as="geometry" />
        </mxCell>
        <mxCell id="EugW5KYL0ZaTyMGA_2LX-53" value="Payments" style="shape=ext;margin=3;double=1;whiteSpace=wrap;html=1;align=center;" vertex="1" parent="1">
          <mxGeometry x="-2660" y="-1000" width="100" height="40" as="geometry" />
        </mxCell>
        <mxCell id="EugW5KYL0ZaTyMGA_2LX-54" value="" style="endArrow=none;html=1;rounded=0;entryX=0;entryY=0.5;entryDx=0;entryDy=0;exitX=1;exitY=0.5;exitDx=0;exitDy=0;" edge="1" parent="1" source="EugW5KYL0ZaTyMGA_2LX-53" target="EugW5KYL0ZaTyMGA_2LX-52">
          <mxGeometry relative="1" as="geometry">
            <mxPoint x="-2570" y="-960" as="sourcePoint" />
            <mxPoint x="-2410" y="-960" as="targetPoint" />
          </mxGeometry>
        </mxCell>
        <mxCell id="EugW5KYL0ZaTyMGA_2LX-56" value="Mode of&lt;br&gt;payments" style="ellipse;whiteSpace=wrap;html=1;align=center;" vertex="1" parent="1">
          <mxGeometry x="-2660" y="-900" width="100" height="40" as="geometry" />
        </mxCell>
        <mxCell id="EugW5KYL0ZaTyMGA_2LX-57" value="" style="endArrow=none;html=1;rounded=0;exitX=0.5;exitY=0;exitDx=0;exitDy=0;entryX=0.5;entryY=1;entryDx=0;entryDy=0;" edge="1" parent="1" source="EugW5KYL0ZaTyMGA_2LX-56" target="EugW5KYL0ZaTyMGA_2LX-53">
          <mxGeometry relative="1" as="geometry">
            <mxPoint x="-2630" y="-960" as="sourcePoint" />
            <mxPoint x="-2470" y="-960" as="targetPoint" />
          </mxGeometry>
        </mxCell>
        <mxCell id="EugW5KYL0ZaTyMGA_2LX-58" value="cash" style="ellipse;whiteSpace=wrap;html=1;align=center;" vertex="1" parent="1">
          <mxGeometry x="-2590" y="-800" width="100" height="40" as="geometry" />
        </mxCell>
        <mxCell id="EugW5KYL0ZaTyMGA_2LX-59" value="credit&lt;br&gt;card" style="ellipse;whiteSpace=wrap;html=1;align=center;" vertex="1" parent="1">
          <mxGeometry x="-2730" y="-800" width="100" height="40" as="geometry" />
        </mxCell>
        <mxCell id="EugW5KYL0ZaTyMGA_2LX-60" value="" style="endArrow=none;html=1;rounded=0;exitX=0.397;exitY=1.002;exitDx=0;exitDy=0;exitPerimeter=0;entryX=1;entryY=0;entryDx=0;entryDy=0;" edge="1" parent="1" source="EugW5KYL0ZaTyMGA_2LX-56" target="EugW5KYL0ZaTyMGA_2LX-59">
          <mxGeometry relative="1" as="geometry">
            <mxPoint x="-2630" y="-780" as="sourcePoint" />
            <mxPoint x="-2470" y="-780" as="targetPoint" />
          </mxGeometry>
        </mxCell>
        <mxCell id="EugW5KYL0ZaTyMGA_2LX-61" value="" style="endArrow=none;html=1;rounded=0;exitX=0.6;exitY=0.984;exitDx=0;exitDy=0;exitPerimeter=0;entryX=0;entryY=0;entryDx=0;entryDy=0;" edge="1" parent="1" source="EugW5KYL0ZaTyMGA_2LX-56" target="EugW5KYL0ZaTyMGA_2LX-58">
          <mxGeometry relative="1" as="geometry">
            <mxPoint x="-2630" y="-780" as="sourcePoint" />
            <mxPoint x="-2470" y="-780" as="targetPoint" />
          </mxGeometry>
        </mxCell>
        <mxCell id="EugW5KYL0ZaTyMGA_2LX-63" value="Age" style="ellipse;whiteSpace=wrap;html=1;align=center;dashed=1;" vertex="1" parent="1">
          <mxGeometry x="-1730" y="-1580" width="100" height="40" as="geometry" />
        </mxCell>
        <mxCell id="EugW5KYL0ZaTyMGA_2LX-64" value="" style="endArrow=none;html=1;rounded=0;exitX=1;exitY=0.5;exitDx=0;exitDy=0;entryX=0.022;entryY=0.344;entryDx=0;entryDy=0;entryPerimeter=0;" edge="1" parent="1" source="EugW5KYL0ZaTyMGA_2LX-16" target="EugW5KYL0ZaTyMGA_2LX-63">
          <mxGeometry relative="1" as="geometry">
            <mxPoint x="-1920" y="-1490" as="sourcePoint" />
            <mxPoint x="-1760" y="-1490" as="targetPoint" />
          </mxGeometry>
        </mxCell>
        <mxCell id="EugW5KYL0ZaTyMGA_2LX-65" value="" style="endArrow=none;html=1;rounded=0;exitX=1;exitY=0.25;exitDx=0;exitDy=0;entryX=0;entryY=0.5;entryDx=0;entryDy=0;" edge="1" parent="1" source="EugW5KYL0ZaTyMGA_2LX-16" target="EugW5KYL0ZaTyMGA_2LX-22">
          <mxGeometry relative="1" as="geometry">
            <mxPoint x="-1920" y="-1490" as="sourcePoint" />
            <mxPoint x="-1760" y="-1490" as="targetPoint" />
          </mxGeometry>
        </mxCell>
        <mxCell id="EugW5KYL0ZaTyMGA_2LX-66" value="Heads" style="shape=rhombus;perimeter=rhombusPerimeter;whiteSpace=wrap;html=1;align=center;" vertex="1" parent="1">
          <mxGeometry x="-2210" y="-1480" width="120" height="60" as="geometry" />
        </mxCell>
        <mxCell id="EugW5KYL0ZaTyMGA_2LX-67" value="" style="endArrow=none;html=1;rounded=0;entryX=0;entryY=0;entryDx=0;entryDy=0;exitX=0.5;exitY=1;exitDx=0;exitDy=0;" edge="1" parent="1" source="EugW5KYL0ZaTyMGA_2LX-66" target="EugW5KYL0ZaTyMGA_2LX-29">
          <mxGeometry relative="1" as="geometry">
            <mxPoint x="-2230" y="-1310" as="sourcePoint" />
            <mxPoint x="-2070" y="-1310" as="targetPoint" />
            <Array as="points">
              <mxPoint x="-2150" y="-1160" />
            </Array>
          </mxGeometry>
        </mxCell>
        <mxCell id="EugW5KYL0ZaTyMGA_2LX-68" value="" style="endArrow=none;html=1;rounded=0;exitX=0.888;exitY=1.053;exitDx=0;exitDy=0;exitPerimeter=0;entryX=0;entryY=0.5;entryDx=0;entryDy=0;" edge="1" parent="1" source="EugW5KYL0ZaTyMGA_2LX-1" target="EugW5KYL0ZaTyMGA_2LX-66">
          <mxGeometry relative="1" as="geometry">
            <mxPoint x="-2320" y="-1460" as="sourcePoint" />
            <mxPoint x="-2160" y="-1460" as="targetPoint" />
            <Array as="points">
              <mxPoint x="-2411" y="-1450" />
            </Array>
          </mxGeometry>
        </mxCell>
        <mxCell id="EugW5KYL0ZaTyMGA_2LX-69" value="n" style="text;html=1;align=center;verticalAlign=middle;resizable=0;points=[];autosize=1;strokeColor=none;fillColor=none;" vertex="1" parent="1">
          <mxGeometry x="-2400" y="-1610" width="30" height="30" as="geometry" />
        </mxCell>
        <mxCell id="EugW5KYL0ZaTyMGA_2LX-71" value="" style="endArrow=none;html=1;rounded=0;exitX=1;exitY=0.5;exitDx=0;exitDy=0;entryX=1.016;entryY=0.345;entryDx=0;entryDy=0;entryPerimeter=0;" edge="1" parent="1" source="EugW5KYL0ZaTyMGA_2LX-14" target="EugW5KYL0ZaTyMGA_2LX-70">
          <mxGeometry relative="1" as="geometry">
            <mxPoint x="-2120" y="-1590" as="sourcePoint" />
            <mxPoint x="-1890" y="-1590" as="targetPoint" />
          </mxGeometry>
        </mxCell>
        <mxCell id="EugW5KYL0ZaTyMGA_2LX-70" value="m" style="text;html=1;align=center;verticalAlign=middle;resizable=0;points=[];autosize=1;strokeColor=none;fillColor=none;" vertex="1" parent="1">
          <mxGeometry x="-1920" y="-1600" width="30" height="30" as="geometry" />
        </mxCell>
        <mxCell id="EugW5KYL0ZaTyMGA_2LX-72" value="1" style="text;html=1;align=center;verticalAlign=middle;resizable=0;points=[];autosize=1;strokeColor=none;fillColor=none;" vertex="1" parent="1">
          <mxGeometry x="-1845" y="-1572" width="30" height="30" as="geometry" />
        </mxCell>
        <mxCell id="EugW5KYL0ZaTyMGA_2LX-73" value="m" style="text;html=1;align=center;verticalAlign=middle;resizable=0;points=[];autosize=1;strokeColor=none;fillColor=none;" vertex="1" parent="1">
          <mxGeometry x="-1845" y="-1182" width="30" height="30" as="geometry" />
        </mxCell>
        <mxCell id="EugW5KYL0ZaTyMGA_2LX-74" value="m" style="text;html=1;align=center;verticalAlign=middle;resizable=0;points=[];autosize=1;strokeColor=none;fillColor=none;" vertex="1" parent="1">
          <mxGeometry x="-1915" y="-1182" width="30" height="30" as="geometry" />
        </mxCell>
        <mxCell id="EugW5KYL0ZaTyMGA_2LX-76" value="Schedule&amp;nbsp;&lt;br&gt;by" style="ellipse;whiteSpace=wrap;html=1;align=center;rotation=0;" vertex="1" parent="1">
          <mxGeometry x="-1850" y="-1000" width="100" height="40" as="geometry" />
        </mxCell>
        <mxCell id="EugW5KYL0ZaTyMGA_2LX-77" value="" style="endArrow=none;html=1;rounded=0;exitX=0.599;exitY=1.046;exitDx=0;exitDy=0;exitPerimeter=0;entryX=0.433;entryY=0.032;entryDx=0;entryDy=0;entryPerimeter=0;" edge="1" parent="1" source="EugW5KYL0ZaTyMGA_2LX-29" target="EugW5KYL0ZaTyMGA_2LX-76">
          <mxGeometry relative="1" as="geometry">
            <mxPoint x="-1940" y="-1000" as="sourcePoint" />
            <mxPoint x="-1780" y="-1000" as="targetPoint" />
          </mxGeometry>
        </mxCell>
        <mxCell id="EugW5KYL0ZaTyMGA_2LX-79" value="Payment&lt;br&gt;ID" style="ellipse;whiteSpace=wrap;html=1;align=center;" vertex="1" parent="1">
          <mxGeometry x="-2800" y="-930" width="100" height="40" as="geometry" />
        </mxCell>
        <mxCell id="EugW5KYL0ZaTyMGA_2LX-80" value="" style="endArrow=none;html=1;rounded=0;exitX=0;exitY=1;exitDx=0;exitDy=0;entryX=0.948;entryY=0.25;entryDx=0;entryDy=0;entryPerimeter=0;" edge="1" parent="1" source="EugW5KYL0ZaTyMGA_2LX-53" target="EugW5KYL0ZaTyMGA_2LX-79">
          <mxGeometry relative="1" as="geometry">
            <mxPoint x="-2610" y="-920" as="sourcePoint" />
            <mxPoint x="-2450" y="-920" as="targetPoint" />
          </mxGeometry>
        </mxCell>
        <mxCell id="EugW5KYL0ZaTyMGA_2LX-81" value="1" style="text;html=1;align=center;verticalAlign=middle;resizable=0;points=[];autosize=1;strokeColor=none;fillColor=none;" vertex="1" parent="1">
          <mxGeometry x="-2435" y="-1572" width="30" height="30" as="geometry" />
        </mxCell>
      </root>
    </mxGraphModel>
  </diagram>
</mxfile>
